<svg width="57" height="57" viewBox="0 0 57 57" fill="none" xmlns="http://www.w3.org/2000/svg">
<g filter="url(#filter0_d_102_5247)">
<path d="M23.2486 48.6502C27.402 47.0168 26.492 42.5135 24.392 39.6668C22.3153 36.7502 19.4453 34.7435 16.552 32.8068C14.4876 31.5057 12.6443 29.883 11.092 28.0002C10.4386 27.2302 9.10863 25.8068 10.462 25.5268C11.8386 25.2468 14.2186 26.6002 15.432 27.1135C17.5553 28.0002 19.6553 29.0268 21.6153 30.2402L23.972 26.2735C20.332 23.8702 15.6653 21.7468 11.3253 21.1168C8.85197 20.7435 6.23863 21.2568 5.39863 23.9402C4.65197 26.2502 5.84197 28.5835 7.1953 30.4035C10.392 34.6735 15.362 36.7268 19.072 40.4135C19.8653 41.1835 20.822 42.0935 21.2886 43.1668C21.7786 44.1935 21.662 44.2635 20.5653 44.2635C17.672 44.2635 14.0553 42.0002 11.6986 40.5068L9.34197 44.4735C12.912 46.6668 18.8853 50.0968 23.2486 48.6502V48.6502ZM49.1253 12.2502C49.6386 11.7368 49.6386 10.8968 49.1253 10.4068L46.092 7.37349C45.8476 7.13795 45.5214 7.00635 45.182 7.00635C44.8426 7.00635 44.5164 7.13795 44.272 7.37349L41.892 9.75349L46.7453 14.6068L49.1253 12.2502ZM26.1653 25.4802V30.3335H31.0186L45.3686 15.9835L40.5153 11.1302L26.1653 25.4802Z" fill="#2091F9"/>
</g>
<defs>
<filter id="filter0_d_102_5247" x="-3.5" y="0" width="64" height="64" filterUnits="userSpaceOnUse" color-interpolation-filters="sRGB">
<feFlood flood-opacity="0" result="BackgroundImageFix"/>
<feColorMatrix in="SourceAlpha" type="matrix" values="0 0 0 0 0 0 0 0 0 0 0 0 0 0 0 0 0 0 127 0" result="hardAlpha"/>
<feOffset dy="4"/>
<feGaussianBlur stdDeviation="2"/>
<feComposite in2="hardAlpha" operator="out"/>
<feColorMatrix type="matrix" values="0 0 0 0 0 0 0 0 0 0 0 0 0 0 0 0 0 0 0.25 0"/>
<feBlend mode="normal" in2="BackgroundImageFix" result="effect1_dropShadow_102_5247"/>
<feBlend mode="normal" in="SourceGraphic" in2="effect1_dropShadow_102_5247" result="shape"/>
</filter>
</defs>
</svg>
